<svg id="Capa_1" data-name="Capa 1" xmlns="http://www.w3.org/2000/svg" viewBox="0 0 267.5 180"><defs><style>.cls-1{fill:#ffff80;}</style></defs><title>crown</title><path class="cls-1" d="M257,100.34a7.48,7.48,0,0,1-.2,2.23l-16.5,66a7.5,7.5,0,0,1-7.24,5.68l-99,.5H35a7.5,7.5,0,0,1-7.28-5.69l-16.5-66.25a7.49,7.49,0,0,1-.2-2.29,15.76,15.76,0,1,1,14.72-2.86l20.66,20.81a28,28,0,0,0,42.26-2.86l33.95-45a15.76,15.76,0,1,1,22.51-.27l0,0,33.7,45.11a28.13,28.13,0,0,0,22.43,11.24,27.82,27.82,0,0,0,19.8-8.2l20.79-20.79A15.75,15.75,0,1,1,257,100.34Zm-18.31,97.91a7.5,7.5,0,0,0-7.5-7.5h-194a7.5,7.5,0,0,0-7.5,7.5v18a7.5,7.5,0,0,0,7.5,7.5h194a7.5,7.5,0,0,0,7.5-7.5v-18Z" transform="translate(0 -43.75)"/></svg>