<?xml version="1.0" encoding="utf-8"?>
<!-- Generator: Adobe Illustrator 19.2.1, SVG Export Plug-In . SVG Version: 6.00 Build 0)  -->
<svg version="1.1" xmlns="http://www.w3.org/2000/svg" xmlns:xlink="http://www.w3.org/1999/xlink" x="0px" y="0px"
	 viewBox="0 0 1260.1 2262.2" style="enable-background:new 0 0 1260.1 2262.2;" xml:space="preserve">
<style type="text/css">
	.st0{display:none;}
	.st1{display:inline;}
	.st2{display:inline;fill:#FFFFFF;}
	.st3{fill:#FFFFFF;stroke:#FFFFFF;stroke-width:13;stroke-miterlimit:10;}
	.st4{stroke:#000000;stroke-width:13;stroke-miterlimit:10;}
	.st5{stroke:#000000;stroke-width:4;stroke-miterlimit:10;}
</style>
<g id="Ebene_1" class="st0">
</g>
<g id="Strokes">
	<path class="st3" d="M84.2,394.9c-14.4-107.9,85.9-132.7,85.9-132.7l897.1-165c0,0,108.1-15.6,120.8,93.5
		c12.7,109.1-84.4,126.7-84.4,126.7L196,485.5C196,485.5,98.6,502.8,84.2,394.9z"/>
	<path class="st3" d="M86.7,687.4c-14.4-107.9,85.9-132.7,85.9-132.7l897.1-165c0,0,108.1-15.6,120.8,93.5
		c12.7,109.1-84.4,126.7-84.4,126.7L198.4,778C198.4,778,101.1,795.3,86.7,687.4z"/>
	<path class="st3" d="M83.1,982.9C68.7,875.1,169,850.2,169,850.2l897.1-165c0,0,108.1-15.6,120.8,93.5
		c12.7,109.1-84.4,126.7-84.4,126.7l-907.6,168.1C194.9,1073.5,97.5,1090.8,83.1,982.9z"/>
	<path class="st3" d="M87.5,124c0.7-37.3,16.1-80.9,33.7-95.4s50.2-16.4,73.2-9.7s403.9,118.4,403.9,118.4S175.7,207.6,155,207.2
		c-20.7-0.4-37-2-52.6-21.6S86.9,161.3,87.5,124z"/>
	<polygon class="st3" points="298.3,1138 298,1097 533.7,1057.1 534.4,1148.1 298.4,1150 	"/>
	<polygon class="st3" points="713.4,1149.6 712.4,1021.6 946,982.6 947.4,1147.6 	"/>
	<path class="st3" d="M1209.5,1150.1c-27.1-14.8-68.4-18.9-68.4-18.9l-111.3,0.9l2.2,263c0,0,99.8-52.7,153.4-93
		c15.7-11.8,23.3-18.2,32.8-31c8.6-11.7,13.4-17.8,17.1-26.6c8.9-21.1,8.2-39.2,8.1-45.1c0-2.7,0.4-7.3-1.4-12.7
		c-1.8-5.3-2.5-11-7.9-16.7c-1.3-1.4-3.6-4.2-5-5.6c-1.9-1.9-4-3.4-5.5-5.1C1220.6,1155.9,1213.7,1152.4,1209.5,1150.1z"/>
	<path class="st3" d="M44.9,1159.8c26.9-15.2,68.1-20.1,68.1-20.1l111.3-0.9l2.2,263c0,0-100.6-51.1-154.9-90.5
		c-15.9-11.5-23.6-17.8-33.3-30.5c-8.8-11.6-13.6-17.6-17.5-26.3c-9.2-21-8.8-39.1-8.9-44.9c0-2.7-0.5-7.3,1.2-12.7
		c1.7-5.4,2.3-11.1,7.7-16.9c1.3-1.4,3.5-4.3,4.9-5.7c1.9-2,4-3.5,5.4-5.2C33.9,1165.8,40.7,1162.2,44.9,1159.8z"/>
	
		<rect x="226.1" y="1135.3" transform="matrix(1 -8.377444e-003 8.377444e-003 1 -11.2441 5.2897)" class="st3" width="799.4" height="419"/>
	<path class="st3" d="M234.2,1655.6c-0.2-26,33.2-31.3,33.2-31.3l0.5,64.7C267.9,1689,234.4,1681.6,234.2,1655.6z"/>
	<path class="st3" d="M1017.5,1632c-0.2-26-33.8-30.7-33.8-30.7l0.5,64.7C984.3,1666,1017.7,1658,1017.5,1632z"/>
	<path class="st3" d="M1018.2,1722c-0.2-26-33.8-30.7-33.8-30.7l0.5,64.7C985,1756,1018.5,1748,1018.2,1722z"/>
	<path class="st3" d="M1019,1807c-0.2-26-33.8-30.7-33.8-30.7l0.5,64.7C985.7,1841,1019.2,1833,1019,1807z"/>
	<path class="st3" d="M1019.7,1892c-0.2-26-33.8-30.7-33.8-30.7l0.5,64.7C986.4,1926,1019.9,1918,1019.7,1892z"/>
	<path class="st3" d="M234.9,1745.3c-0.2-26,33.2-31.3,33.2-31.3l0.5,64.7C268.7,1778.7,235.1,1771.3,234.9,1745.3z"/>
	<path class="st3" d="M235.7,1834.9c-0.2-26,33.2-31.3,33.2-31.3l0.5,64.7C269.4,1868.3,235.9,1860.9,235.7,1834.9z"/>
	<path class="st3" d="M236.4,1924.6c-0.2-26,33.2-31.3,33.2-31.3l0.5,64.7C270.2,1958,236.6,1950.6,236.4,1924.6z"/>
	<path class="st3" d="M266.8,1557.3l3.8,456.9c0,0,49.5,83.3,53.7,87.7c4.3,4.4,70.2,72.7,70.2,72.7l111.5-0.9l69,67.5l51.2-0.4
		l-5.7-686.3"/>
	<path class="st3" d="M985.7,1551.8l3.8,456.9c0,0-48.1,84.1-52.3,88.6c-4.2,4.5-69,73.8-69,73.8l-111.5,0.9l-67.8,68.6l-51.2,0.4
		l-5.7-686.3"/>
	<rect x="576.3" y="1584.4" class="st3" width="109.5" height="633"/>
</g>
<g id="white_thingies">
	<path class="st5" d="M268.7,1635.6c-7.7,1.2-20,3.5-19.8,19.5s9.2,17.1,11.5,17.9c10.2,1.2,584.9-54.9,584.9-54.9
		S276.3,1634.4,268.7,1635.6z"/>
	<path class="st5" d="M269.4,1726c-7.7,1.2-20,3.5-19.8,19.5c0.1,16,9.2,17.1,11.5,17.9c10.2,1.2,584.9-54.9,584.9-54.9
		S277.1,1724.7,269.4,1726z"/>
	<path class="st5" d="M273,1816.3c-7.7,1.2-20,3.5-19.8,19.5s9.2,17.1,11.5,17.9c10.2,1.2,584.9-54.9,584.9-54.9
		S280.7,1815.1,273,1816.3z"/>
	<path class="st5" d="M273.7,1902.3c-7.7,1.2-20,3.5-19.8,19.5c0.1,16,9.2,17.1,11.5,17.9c10.2,1.2,584.9-54.9,584.9-54.9
		S281.4,1901,273.7,1902.3z"/>
</g>
</svg>
